<svg version="1.1" xmlns="http://www.w3.org/2000/svg" xmlns:xlink="http://www.w3.org/1999/xlink" width="1084" height="852"><defs/><g><g transform="translate(2,2) scale(1,1)"><path fill="none" stroke="#000000" d="M 8 8 L 1072 8 L 1072 840 L 8 840 L 8 8" stroke-miterlimit="10"/></g><g transform="translate(2,2) scale(1,1)"><path fill="#ffadad" stroke="none" d="M 8 8 L 8 30 L 126.6162109375 30 L 137.6162109375 19 L 137.6162109375 8 L 8 8"/></g><g transform="translate(2,2) scale(1,1)"><path fill="none" stroke="#000000" d="M 8 8 L 8 30 L 126.6162109375 30 L 137.6162109375 19 L 137.6162109375 8 L 8 8 L 8 8" stroke-miterlimit="10"/></g><g transform="translate(2,2) scale(1,1)"><g><path fill="none" stroke="none"/><text fill="#000000" stroke="none" font-family="Arial" font-size="13px" font-style="normal" font-weight="normal" text-decoration="none" x="32.72998046875" y="25.5">Button Pressed</text></g></g><g transform="translate(2,2) scale(1,1)"><g><path fill="none" stroke="none"/><text fill="#000000" stroke="none" font-family="Arial" font-size="13px" font-style="normal" font-weight="bold" text-decoration="none" x="13" y="25.5">sd</text></g></g><g transform="translate(2,2) scale(1,1)"><rect fill="#a3e0ff" stroke="none" x="520" y="40" width="122.28271484375" height="39"/></g><g transform="translate(2,2) scale(1,1)"><path fill="none" stroke="#000000" d="M 520 40 L 642.28271484375 40 L 642.28271484375 79 L 520 79 L 520 40 Z Z" stroke-miterlimit="10"/></g><g transform="translate(2,2) scale(1,1)"><g><path fill="none" stroke="none"/><text fill="#000000" stroke="none" font-family="Arial" font-size="13px" font-style="normal" font-weight="bold" text-decoration="none" x="537.06005859375" y="59.5">thingy1: Thingy</text></g></g><g transform="translate(2,2) scale(1,1)"><path fill="none" stroke="#000000" d="M 582.5 80 L 582.5 840" stroke-miterlimit="10" stroke-dasharray="3"/></g><g transform="translate(2,2) scale(1,1)"><rect fill="#a3e0ff" stroke="none" x="688" y="40" width="122.28271484375" height="39"/></g><g transform="translate(2,2) scale(1,1)"><path fill="none" stroke="#000000" d="M 688 40 L 810.28271484375 40 L 810.28271484375 79 L 688 79 L 688 40 Z Z" stroke-miterlimit="10"/></g><g transform="translate(2,2) scale(1,1)"><g><path fill="none" stroke="none"/><text fill="#000000" stroke="none" font-family="Arial" font-size="13px" font-style="normal" font-weight="bold" text-decoration="none" x="705.06005859375" y="59.5">thingy2: Thingy</text></g></g><g transform="translate(2,2) scale(1,1)"><path fill="none" stroke="#000000" d="M 750.5 80 L 750.5 840" stroke-miterlimit="10" stroke-dasharray="3"/></g><g transform="translate(2,2) scale(1,1)"><rect fill="#a3e0ff" stroke="none" x="40" y="40" width="167.0654296875" height="39"/></g><g transform="translate(2,2) scale(1,1)"><path fill="none" stroke="#000000" d="M 40 40 L 207.0654296875 40 L 207.0654296875 79 L 40 79 L 40 40 Z Z" stroke-miterlimit="10"/></g><g transform="translate(2,2) scale(1,1)"><g><path fill="none" stroke="none"/><text fill="#000000" stroke="none" font-family="Arial" font-size="13px" font-style="normal" font-weight="bold" text-decoration="none" x="56.345947265625" y="59.5">controller: MyController</text></g></g><g transform="translate(2,2) scale(1,1)"><path fill="none" stroke="#000000" d="M 124.5 80 L 124.5 840" stroke-miterlimit="10" stroke-dasharray="3"/></g><g transform="translate(2,2) scale(1,1)"><rect fill="#a3e0ff" stroke="none" x="920" y="40" width="122.28271484375" height="39"/></g><g transform="translate(2,2) scale(1,1)"><path fill="none" stroke="#000000" d="M 920 40 L 1042.28271484375 40 L 1042.28271484375 79 L 920 79 L 920 40 Z Z" stroke-miterlimit="10"/></g><g transform="translate(2,2) scale(1,1)"><g><path fill="none" stroke="none"/><text fill="#000000" stroke="none" font-family="Arial" font-size="13px" font-style="normal" font-weight="bold" text-decoration="none" x="935.98095703125" y="59.5">thingyN: Thingy</text></g></g><g transform="translate(2,2) scale(1,1)"><path fill="none" stroke="#000000" d="M 982.5 80 L 982.5 840" stroke-miterlimit="10" stroke-dasharray="3"/></g><g transform="translate(2,2) scale(1,1)"><g><path fill="none" stroke="none"/><text fill="#000000" stroke="none" font-family="Arial" font-size="24px" font-style="normal" font-weight="normal" text-decoration="none" x="861" y="69">...</text></g></g><g transform="translate(2,2) scale(1,1)"><path fill="#000000" stroke="none" d="M 384 175.5 C 384 171.6340064 387.1340064 168.5 391 168.5 C 394.8659936 168.5 398 171.6340064 398 175.5 C 398 179.3659936 394.8659936 182.5 391 182.5 C 387.1340064 182.5 384 179.3659936 384 175.5 Z"/></g><g transform="translate(2,2) scale(1,1)"><path fill="#000000" stroke="none" d="M 328 175.5 C 328 171.6340064 331.1340064 168.5 335 168.5 C 338.8659936 168.5 342 171.6340064 342 175.5 C 342 179.3659936 338.8659936 182.5 335 182.5 C 331.1340064 182.5 328 179.3659936 328 175.5 Z"/></g><g transform="translate(2,2) scale(1,1)"><path fill="#ffffd8" stroke="none" d="M 248 96 L 381 96 L 391 106 L 391 132 L 248 132 L 248 96"/></g><g transform="translate(2,2) scale(1,1)"><path fill="none" stroke="#000000" d="M 248 96 L 381 96 L 391 106 L 391 132 L 248 132 L 248 96 L 248 96" stroke-miterlimit="10"/></g><g transform="translate(2,2) scale(1,1)"><path fill="none" stroke="#000000" d="M 381 96 L 381 106 L 391 106 L 381 96" stroke-miterlimit="10"/></g><g transform="translate(2,2) scale(1,1)"><g><path fill="none" stroke="none"/><text fill="#000000" stroke="none" font-family="Arial" font-size="13px" font-style="normal" font-weight="normal" text-decoration="none" x="253" y="114">We assume that no</text><text fill="#000000" stroke="none" font-family="Arial" font-size="13px" font-style="normal" font-weight="normal" text-decoration="none" x="253" y="127">button is pressed yet.</text></g></g><g transform="translate(2,2) scale(1,1)"><path fill="none" stroke="#000000" d="M 248 112 L 125 120" stroke-miterlimit="10"/></g><g transform="translate(2,2) scale(1,1)"><path fill="none" stroke="#000000" d="M 392 176 L 335 175" stroke-miterlimit="10" stroke-dasharray="3"/></g><g transform="translate(2,2) scale(1,1)"><path fill="#000000" stroke="none" d="M 384 567.5 C 384 563.6340064 387.1340064 560.5 391 560.5 C 394.8659936 560.5 398 563.6340064 398 567.5 C 398 571.3659936 394.8659936 574.5 391 574.5 C 387.1340064 574.5 384 571.3659936 384 567.5 Z"/></g><g transform="translate(2,2) scale(1,1)"><path fill="#000000" stroke="none" d="M 328 567.5 C 328 563.6340064 331.1340064 560.5 335 560.5 C 338.8659936 560.5 342 563.6340064 342 567.5 C 342 571.3659936 338.8659936 574.5 335 574.5 C 331.1340064 574.5 328 571.3659936 328 567.5 Z"/></g><g transform="translate(2,2) scale(1,1)"><path fill="none" stroke="#000000" d="M 384 568 L 334 568" stroke-miterlimit="10" stroke-dasharray="3"/></g><g transform="translate(2,2) scale(1,1)"><path fill="#ffffd8" stroke="none" d="M 176 456 L 437 456 L 447 466 L 447 511 L 176 511 L 176 456"/></g><g transform="translate(2,2) scale(1,1)"><path fill="none" stroke="#000000" d="M 176 456 L 437 456 L 447 466 L 447 511 L 176 511 L 176 456 L 176 456" stroke-miterlimit="10"/></g><g transform="translate(2,2) scale(1,1)"><path fill="none" stroke="#000000" d="M 437 456 L 437 466 L 447 466 L 437 456" stroke-miterlimit="10"/></g><g transform="translate(2,2) scale(1,1)"><g><path fill="none" stroke="none"/><text fill="#000000" stroke="none" font-family="Arial" font-size="13px" font-style="normal" font-weight="normal" text-decoration="none" x="181" y="474">To find out which Thingy instance send the</text><text fill="#000000" stroke="none" font-family="Arial" font-size="13px" font-style="normal" font-weight="normal" text-decoration="none" x="181" y="487">signal, you can use:</text></g></g><g transform="translate(2,2) scale(1,1)"><g><path fill="none" stroke="none"/></g></g><g transform="translate(2,2) scale(1,1)"><g><path fill="none" stroke="none"/><text fill="#000000" stroke="none" font-family="Arial" font-size="13px" font-style="normal" font-weight="normal" text-decoration="none" x="181" y="504">auto* t = qobject_cast&lt;Thingy*&gt;(sender());</text></g></g><g transform="translate(2,2) scale(1,1)"><path fill="none" stroke="#000000" d="M 176 488 L 88 488 L 88 200 L 114 200" stroke-miterlimit="10"/></g><g transform="translate(2,2) scale(1,1)"><path fill="none" stroke="#000000" d="M 88 488 L 88 598 L 115 598" stroke-miterlimit="10"/></g><g transform="translate(2,2) scale(1,1)"><path fill="none" stroke="#000000" d="M 328 176 L 130 176" stroke-miterlimit="10"/></g><g transform="translate(2,2) scale(1,1)"><path fill="#000000" stroke="none" d="M 140.16267485762415 171.790482243984 L 130 176 L 140.16267485762415 180.209517756016"/></g><g transform="translate(2,2) scale(1,1)"><path fill="none" stroke="#000000" d="M 140.16267485762415 171.790482243984 L 130 176 L 140.16267485762415 180.209517756016 L 140.16267485762415 171.790482243984" stroke-miterlimit="10"/></g><g transform="translate(2,2) scale(1,1)"><g><path fill="none" stroke="none"/><text fill="#000000" stroke="none" font-family="Arial" font-size="13px" font-style="normal" font-weight="normal" text-decoration="none" x="160.5" y="192.5">onButtonChanged(true)</text></g></g><g transform="translate(2,2) scale(1,1)"><g><path fill="none" stroke="none"/><text fill="#000000" stroke="none" font-family="Arial" font-size="13px" font-style="normal" font-weight="normal" text-decoration="none" x="210.5" y="207.5">«slot»</text></g></g><g transform="translate(2,2) scale(1,1)"><rect fill="#ffffff" stroke="none" x="117" y="176" width="13" height="272"/></g><g transform="translate(2,2) scale(1,1)"><path fill="none" stroke="#000000" d="M 117 176 L 130 176 L 130 448 L 117 448 L 117 176 Z Z" stroke-miterlimit="10"/></g><g transform="translate(2,2) scale(1,1)"><path fill="none" stroke="#000000" d="M 582 176 L 398 176" stroke-miterlimit="10"/></g><g transform="translate(2,2) scale(1,1)"><path fill="#000000" stroke="none" d="M 408.16267485762415 171.790482243984 L 398 176 L 408.16267485762415 180.209517756016"/></g><g transform="translate(2,2) scale(1,1)"><path fill="none" stroke="#000000" d="M 408.16267485762415 171.790482243984 L 398 176 L 408.16267485762415 180.209517756016 L 408.16267485762415 171.790482243984" stroke-miterlimit="10"/></g><g transform="translate(2,2) scale(1,1)"><g><path fill="none" stroke="none"/><text fill="#000000" stroke="none" font-family="Arial" font-size="13px" font-style="normal" font-weight="normal" text-decoration="none" x="413.841796875" y="192.5">buttonStateChanged(true)</text></g></g><g transform="translate(2,2) scale(1,1)"><g><path fill="none" stroke="none"/><text fill="#000000" stroke="none" font-family="Arial" font-size="13px" font-style="normal" font-weight="normal" text-decoration="none" x="464.5" y="207.5">«signal»</text></g></g><g transform="translate(2,2) scale(1,1)"><path fill="none" stroke="#000000" d="M 130 248 L 575 248" stroke-miterlimit="10"/></g><g transform="translate(2,2) scale(1,1)"><path fill="#000000" stroke="none" d="M 564.8373251423759 252.209517756016 L 575 248 L 564.8373251423758 243.790482243984"/></g><g transform="translate(2,2) scale(1,1)"><path fill="none" stroke="#000000" d="M 564.8373251423759 252.209517756016 L 575 248 L 564.8373251423758 243.790482243984 L 564.8373251423759 252.209517756016" stroke-miterlimit="10"/></g><g transform="translate(2,2) scale(1,1)"><g><path fill="none" stroke="none"/><text fill="#000000" stroke="none" font-family="Arial" font-size="13px" font-style="normal" font-weight="normal" text-decoration="none" x="286.853515625" y="244.5">setLedColor(0, 255, 0)</text></g></g><g transform="translate(2,2) scale(1,1)"><rect fill="#ffffff" stroke="none" x="575" y="248" width="13" height="32"/></g><g transform="translate(2,2) scale(1,1)"><path fill="none" stroke="#000000" d="M 575 248 L 588 248 L 588 280 L 575 280 L 575 248 Z Z" stroke-miterlimit="10"/></g><g transform="translate(2,2) scale(1,1)"><path fill="none" stroke="#000000" d="M 582 280 L 130 280" stroke-miterlimit="10" stroke-dasharray="3"/></g><g transform="translate(2,2) scale(1,1)"><path fill="none" stroke="#000000" d="M 140.16267485762415 275.790482243984 L 130 280 L 140.16267485762415 284.209517756016" stroke-miterlimit="10"/></g><g transform="translate(2,2) scale(1,1)"><path fill="none" stroke="#000000" d="M 130 320 L 743 320" stroke-miterlimit="10"/></g><g transform="translate(2,2) scale(1,1)"><path fill="#000000" stroke="none" d="M 732.8373251423759 324.209517756016 L 743 320 L 732.8373251423758 315.790482243984"/></g><g transform="translate(2,2) scale(1,1)"><path fill="none" stroke="#000000" d="M 732.8373251423759 324.209517756016 L 743 320 L 732.8373251423758 315.790482243984 L 732.8373251423759 324.209517756016" stroke-miterlimit="10"/></g><g transform="translate(2,2) scale(1,1)"><g><path fill="none" stroke="none"/><text fill="#000000" stroke="none" font-family="Arial" font-size="13px" font-style="normal" font-weight="normal" text-decoration="none" x="370.853515625" y="316.5">setLedColor(255, 0, 0)</text></g></g><g transform="translate(2,2) scale(1,1)"><rect fill="#ffffff" stroke="none" x="743" y="320" width="13" height="32"/></g><g transform="translate(2,2) scale(1,1)"><path fill="none" stroke="#000000" d="M 743 320 L 756 320 L 756 352 L 743 352 L 743 320 Z Z" stroke-miterlimit="10"/></g><g transform="translate(2,2) scale(1,1)"><path fill="none" stroke="#000000" d="M 750 352 L 130 352" stroke-miterlimit="10" stroke-dasharray="3"/></g><g transform="translate(2,2) scale(1,1)"><path fill="none" stroke="#000000" d="M 140.16267485762415 347.790482243984 L 130 352 L 140.16267485762415 356.209517756016" stroke-miterlimit="10"/></g><g transform="translate(2,2) scale(1,1)"><path fill="none" stroke="#000000" d="M 130 392 L 975 392" stroke-miterlimit="10"/></g><g transform="translate(2,2) scale(1,1)"><path fill="#000000" stroke="none" d="M 964.8373251423759 396.209517756016 L 975 392 L 964.8373251423758 387.790482243984"/></g><g transform="translate(2,2) scale(1,1)"><path fill="none" stroke="#000000" d="M 964.8373251423759 396.209517756016 L 975 392 L 964.8373251423758 387.790482243984 L 964.8373251423759 396.209517756016" stroke-miterlimit="10"/></g><g transform="translate(2,2) scale(1,1)"><g><path fill="none" stroke="none"/><text fill="#000000" stroke="none" font-family="Arial" font-size="13px" font-style="normal" font-weight="normal" text-decoration="none" x="486.853515625" y="388.5">setLedColor(255, 0, 0)</text></g></g><g transform="translate(2,2) scale(1,1)"><rect fill="#ffffff" stroke="none" x="975" y="392" width="13" height="32"/></g><g transform="translate(2,2) scale(1,1)"><path fill="none" stroke="#000000" d="M 975 392 L 988 392 L 988 424 L 975 424 L 975 392 Z Z" stroke-miterlimit="10"/></g><g transform="translate(2,2) scale(1,1)"><path fill="none" stroke="#000000" d="M 982 424 L 130 424" stroke-miterlimit="10" stroke-dasharray="3"/></g><g transform="translate(2,2) scale(1,1)"><path fill="none" stroke="#000000" d="M 140.16267485762415 419.790482243984 L 130 424 L 140.16267485762415 428.209517756016" stroke-miterlimit="10"/></g><g transform="translate(2,2) scale(1,1)"><path fill="none" stroke="#000000" d="M 328 568 L 130 568" stroke-miterlimit="10"/></g><g transform="translate(2,2) scale(1,1)"><path fill="#000000" stroke="none" d="M 140.16267485762415 563.790482243984 L 130 568 L 140.16267485762415 572.209517756016"/></g><g transform="translate(2,2) scale(1,1)"><path fill="none" stroke="#000000" d="M 140.16267485762415 563.790482243984 L 130 568 L 140.16267485762415 572.209517756016 L 140.16267485762415 563.790482243984" stroke-miterlimit="10"/></g><g transform="translate(2,2) scale(1,1)"><g><path fill="none" stroke="none"/><text fill="#000000" stroke="none" font-family="Arial" font-size="13px" font-style="normal" font-weight="normal" text-decoration="none" x="171.5" y="584.5">onButtonChanged()</text></g></g><g transform="translate(2,2) scale(1,1)"><g><path fill="none" stroke="none"/><text fill="#000000" stroke="none" font-family="Arial" font-size="13px" font-style="normal" font-weight="normal" text-decoration="none" x="210.5" y="599.5">«slot»</text></g></g><g transform="translate(2,2) scale(1,1)"><rect fill="#ffffff" stroke="none" x="117" y="568" width="13" height="240"/></g><g transform="translate(2,2) scale(1,1)"><path fill="none" stroke="#000000" d="M 117 568 L 130 568 L 130 808 L 117 808 L 117 568 Z Z" stroke-miterlimit="10"/></g><g transform="translate(2,2) scale(1,1)"><path fill="none" stroke="#000000" d="M 582 568 L 398 568" stroke-miterlimit="10"/></g><g transform="translate(2,2) scale(1,1)"><path fill="#000000" stroke="none" d="M 408.16267485762415 563.790482243984 L 398 568 L 408.16267485762415 572.209517756016"/></g><g transform="translate(2,2) scale(1,1)"><path fill="none" stroke="#000000" d="M 408.16267485762415 563.790482243984 L 398 568 L 408.16267485762415 572.209517756016 L 408.16267485762415 563.790482243984" stroke-miterlimit="10"/></g><g transform="translate(2,2) scale(1,1)"><g><path fill="none" stroke="none"/><text fill="#000000" stroke="none" font-family="Arial" font-size="13px" font-style="normal" font-weight="normal" text-decoration="none" x="411.5" y="584.5">buttonStateChanged(false)</text></g></g><g transform="translate(2,2) scale(1,1)"><g><path fill="none" stroke="none"/><text fill="#000000" stroke="none" font-family="Arial" font-size="13px" font-style="normal" font-weight="normal" text-decoration="none" x="464.5" y="599.5">«signal»</text></g></g><g transform="translate(2,2) scale(1,1)"><path fill="none" stroke="#000000" d="M 130 624 L 575 624" stroke-miterlimit="10"/></g><g transform="translate(2,2) scale(1,1)"><path fill="#000000" stroke="none" d="M 564.8373251423759 628.209517756016 L 575 624 L 564.8373251423758 619.790482243984"/></g><g transform="translate(2,2) scale(1,1)"><path fill="none" stroke="#000000" d="M 564.8373251423759 628.209517756016 L 575 624 L 564.8373251423758 619.790482243984 L 564.8373251423759 628.209517756016" stroke-miterlimit="10"/></g><g transform="translate(2,2) scale(1,1)"><g><path fill="none" stroke="none"/><text fill="#000000" stroke="none" font-family="Arial" font-size="13px" font-style="normal" font-weight="normal" text-decoration="none" x="319.5" y="620.5">setLedOff()</text></g></g><g transform="translate(2,2) scale(1,1)"><rect fill="#ffffff" stroke="none" x="575" y="624" width="13" height="32"/></g><g transform="translate(2,2) scale(1,1)"><path fill="none" stroke="#000000" d="M 575 624 L 588 624 L 588 656 L 575 656 L 575 624 Z Z" stroke-miterlimit="10"/></g><g transform="translate(2,2) scale(1,1)"><path fill="none" stroke="#000000" d="M 582 656 L 130 656" stroke-miterlimit="10" stroke-dasharray="3"/></g><g transform="translate(2,2) scale(1,1)"><path fill="none" stroke="#000000" d="M 140.16267485762415 651.790482243984 L 130 656 L 140.16267485762415 660.209517756016" stroke-miterlimit="10"/></g><g transform="translate(2,2) scale(1,1)"><path fill="none" stroke="#000000" d="M 130 691 L 743 691" stroke-miterlimit="10"/></g><g transform="translate(2,2) scale(1,1)"><path fill="#000000" stroke="none" d="M 732.8373251423759 695.209517756016 L 743 691 L 732.8373251423758 686.790482243984"/></g><g transform="translate(2,2) scale(1,1)"><path fill="none" stroke="#000000" d="M 732.8373251423759 695.209517756016 L 743 691 L 732.8373251423758 686.790482243984 L 732.8373251423759 695.209517756016" stroke-miterlimit="10"/></g><g transform="translate(2,2) scale(1,1)"><g><path fill="none" stroke="none"/><text fill="#000000" stroke="none" font-family="Arial" font-size="13px" font-style="normal" font-weight="normal" text-decoration="none" x="403.5" y="687.5">setLedOff()</text></g></g><g transform="translate(2,2) scale(1,1)"><rect fill="#ffffff" stroke="none" x="743" y="691" width="13" height="29"/></g><g transform="translate(2,2) scale(1,1)"><path fill="none" stroke="#000000" d="M 743 691 L 756 691 L 756 720 L 743 720 L 743 691 Z Z" stroke-miterlimit="10"/></g><g transform="translate(2,2) scale(1,1)"><path fill="none" stroke="#000000" d="M 750 720 L 130 720" stroke-miterlimit="10" stroke-dasharray="3"/></g><g transform="translate(2,2) scale(1,1)"><path fill="none" stroke="#000000" d="M 140.16267485762415 715.790482243984 L 130 720 L 140.16267485762415 724.209517756016" stroke-miterlimit="10"/></g><g transform="translate(2,2) scale(1,1)"><path fill="none" stroke="#000000" d="M 130 763 L 975 763" stroke-miterlimit="10"/></g><g transform="translate(2,2) scale(1,1)"><path fill="#000000" stroke="none" d="M 964.8373251423759 767.209517756016 L 975 763 L 964.8373251423758 758.790482243984"/></g><g transform="translate(2,2) scale(1,1)"><path fill="none" stroke="#000000" d="M 964.8373251423759 767.209517756016 L 975 763 L 964.8373251423758 758.790482243984 L 964.8373251423759 767.209517756016" stroke-miterlimit="10"/></g><g transform="translate(2,2) scale(1,1)"><g><path fill="none" stroke="none"/><text fill="#000000" stroke="none" font-family="Arial" font-size="13px" font-style="normal" font-weight="normal" text-decoration="none" x="519.709228515625" y="759.5">setLedOff()</text></g></g><g transform="translate(2,2) scale(1,1)"><rect fill="#ffffff" stroke="none" x="975" y="763" width="13" height="29"/></g><g transform="translate(2,2) scale(1,1)"><path fill="none" stroke="#000000" d="M 975 763 L 988 763 L 988 792 L 975 792 L 975 763 Z Z" stroke-miterlimit="10"/></g><g transform="translate(2,2) scale(1,1)"><path fill="none" stroke="#000000" d="M 982 792 L 130 792" stroke-miterlimit="10" stroke-dasharray="3"/></g><g transform="translate(2,2) scale(1,1)"><path fill="none" stroke="#000000" d="M 140.16267485762415 787.790482243984 L 130 792 L 140.16267485762415 796.209517756016" stroke-miterlimit="10"/></g></g></svg>