<svg version="1.1" xmlns="http://www.w3.org/2000/svg" xmlns:xlink="http://www.w3.org/1999/xlink" width="1463" height="1196"><defs/><g><g transform="translate(45,2) scale(1,1)"><path fill="none" stroke="#000000" d="M 8 8 L 1408 8 L 1408 1184 L 8 1184 L 8 8" stroke-miterlimit="10"/></g><g transform="translate(45,2) scale(1,1)"><path fill="#ffadad" stroke="none" d="M 8 8 L 8 30 L 171.42431640625 30 L 182.42431640625 19 L 182.42431640625 8 L 8 8"/></g><g transform="translate(45,2) scale(1,1)"><path fill="none" stroke="#000000" d="M 8 8 L 8 30 L 171.42431640625 30 L 182.42431640625 19 L 182.42431640625 8 L 8 8 L 8 8" stroke-miterlimit="10"/></g><g transform="translate(45,2) scale(1,1)"><g><path fill="none" stroke="none"/><text fill="#000000" stroke="none" font-family="Arial" font-size="13px" font-style="normal" font-weight="normal" text-decoration="none" x="32.72998046875" y="25.5">Connecting to a Thingy</text></g></g><g transform="translate(45,2) scale(1,1)"><g><path fill="none" stroke="none"/><text fill="#000000" stroke="none" font-family="Arial" font-size="13px" font-style="normal" font-weight="bold" text-decoration="none" x="13" y="25.5">sd</text></g></g><g transform="translate(45,2) scale(1,1)"><rect fill="#a3e0ff" stroke="none" x="16" y="40" width="156.97265625" height="39"/></g><g transform="translate(45,2) scale(1,1)"><path fill="none" stroke="#000000" d="M 16 40 L 172.97265625 40 L 172.97265625 79 L 16 79 L 16 40 Z Z" stroke-miterlimit="10"/></g><g transform="translate(45,2) scale(1,1)"><g><path fill="none" stroke="none"/><text fill="#000000" stroke="none" font-family="Arial" font-size="13px" font-style="normal" font-weight="bold" text-decoration="none" x="31.62548828125" y="59.5">main function or class</text></g></g><g transform="translate(45,2) scale(1,1)"><path fill="none" stroke="#000000" d="M 95.5 80 L 95.5 1184" stroke-miterlimit="10" stroke-dasharray="3"/></g><g transform="translate(45,2) scale(1,1)"><rect fill="#a3e0ff" stroke="none" x="304" y="40" width="122.28271484375" height="39"/></g><g transform="translate(45,2) scale(1,1)"><path fill="none" stroke="#000000" d="M 304 40 L 426.28271484375 40 L 426.28271484375 79 L 304 79 L 304 40 Z Z" stroke-miterlimit="10"/></g><g transform="translate(45,2) scale(1,1)"><g><path fill="none" stroke="none"/><text fill="#000000" stroke="none" font-family="Arial" font-size="13px" font-style="normal" font-weight="normal" text-decoration="none" x="343.102294921875" y="57.5">«class»</text></g></g><g transform="translate(45,2) scale(1,1)"><g><path fill="none" stroke="none"/><text fill="#000000" stroke="none" font-family="Arial" font-size="13px" font-style="normal" font-weight="bold" text-decoration="none" x="342.02001953125" y="72.5">: Thingy</text></g></g><g transform="translate(45,2) scale(1,1)"><path fill="none" stroke="#000000" d="M 366.5 80 L 366.5 1184" stroke-miterlimit="10" stroke-dasharray="3"/></g><g transform="translate(45,2) scale(1,1)"><rect fill="#a3e0ff" stroke="none" x="530" y="228" width="122.28271484375" height="39"/></g><g transform="translate(45,2) scale(1,1)"><path fill="none" stroke="#000000" d="M 530 228 L 652.28271484375 228 L 652.28271484375 267 L 530 267 L 530 228 Z Z" stroke-miterlimit="10"/></g><g transform="translate(45,2) scale(1,1)"><g><path fill="none" stroke="none"/><text fill="#000000" stroke="none" font-family="Arial" font-size="13px" font-style="normal" font-weight="bold" text-decoration="none" x="568.02001953125" y="247.5">: Thingy</text></g></g><g transform="translate(45,2) scale(1,1)"><path fill="none" stroke="#000000" d="M 592.5 268 L 592.5 1184" stroke-miterlimit="10" stroke-dasharray="3"/></g><g transform="translate(45,2) scale(1,1)"><rect fill="#a3ffa3" stroke="none" x="800" y="276" width="236.41357421875" height="39"/></g><g transform="translate(45,2) scale(1,1)"><path fill="none" stroke="#000000" d="M 800 276 L 1036.41357421875 276 L 1036.41357421875 315 L 800 315 L 800 276 Z Z" stroke-miterlimit="10"/></g><g transform="translate(45,2) scale(1,1)"><g><path fill="none" stroke="none"/><text fill="#000000" stroke="none" font-family="Arial" font-size="13px" font-style="normal" font-weight="bold" text-decoration="none" x="848.8427734375" y="295.5">: QLowEnergyController</text></g></g><g transform="translate(45,2) scale(1,1)"><path fill="none" stroke="#000000" d="M 919.5 316 L 919.5 1184" stroke-miterlimit="10" stroke-dasharray="3"/></g><g transform="translate(45,2) scale(1,1)"><path fill="#ffffd8" stroke="none" d="M 136 504 L 285 504 L 295 514 L 295 542 L 136 542 L 136 504"/></g><g transform="translate(45,2) scale(1,1)"><path fill="none" stroke="#000000" d="M 136 504 L 285 504 L 295 514 L 295 542 L 136 542 L 136 504 L 136 504" stroke-miterlimit="10"/></g><g transform="translate(45,2) scale(1,1)"><path fill="none" stroke="#000000" d="M 285 504 L 285 514 L 295 514 L 285 504" stroke-miterlimit="10"/></g><g transform="translate(45,2) scale(1,1)"><g><path fill="none" stroke="none"/><text fill="#000000" stroke="none" font-family="Arial" font-size="13px" font-style="normal" font-weight="normal" text-decoration="none" x="141" y="522">call QApplication::exec()</text><text fill="#000000" stroke="none" font-family="Arial" font-size="13px" font-style="normal" font-weight="normal" text-decoration="none" x="141" y="535">to handle all Qt events.</text></g></g><g transform="translate(45,2) scale(1,1)"><rect fill="#a3ffa3" stroke="none" x="1016" y="756" width="218.42431640625" height="39"/></g><g transform="translate(45,2) scale(1,1)"><path fill="none" stroke="#000000" d="M 1016 756 L 1234.42431640625 756 L 1234.42431640625 795 L 1016 795 L 1016 756 Z Z" stroke-miterlimit="10"/></g><g transform="translate(45,2) scale(1,1)"><g><path fill="none" stroke="none"/><text fill="#000000" stroke="none" font-family="Arial" font-size="13px" font-style="normal" font-weight="bold" text-decoration="none" x="1062.351318359375" y="775.5">: QLowEnergyService</text></g></g><g transform="translate(45,2) scale(1,1)"><path fill="none" stroke="#000000" d="M 1126.5 796 L 1126.5 1184" stroke-miterlimit="10" stroke-dasharray="3"/></g><g transform="translate(45,2) scale(1,1)"><path fill="none" stroke="#000000" d="M 136 520 L 96 520" stroke-miterlimit="10"/></g><g transform="translate(45,2) scale(1,1)"><path fill="#ffffd8" stroke="none" d="M 448 112 L 605 112 L 615 122 L 615 148 L 448 148 L 448 112"/></g><g transform="translate(45,2) scale(1,1)"><path fill="none" stroke="#000000" d="M 448 112 L 605 112 L 615 122 L 615 148 L 448 148 L 448 112 L 448 112" stroke-miterlimit="10"/></g><g transform="translate(45,2) scale(1,1)"><path fill="none" stroke="#000000" d="M 605 112 L 605 122 L 615 122 L 605 112" stroke-miterlimit="10"/></g><g transform="translate(45,2) scale(1,1)"><g><path fill="none" stroke="none"/><text fill="#000000" stroke="none" font-family="Arial" font-size="13px" font-style="normal" font-weight="normal" text-decoration="none" x="453" y="130">As seen in the Bluetooth</text><text fill="#000000" stroke="none" font-family="Arial" font-size="13px" font-style="normal" font-weight="normal" text-decoration="none" x="453" y="143">hands-on (QEventLoop).</text></g></g><g transform="translate(45,2) scale(1,1)"><path fill="none" stroke="#000000" d="M 448 128 L 372 152" stroke-miterlimit="10"/></g><g transform="translate(45,2) scale(1,1)"><path fill="#ffffd8" stroke="none" d="M 136 256 L 317 256 L 327 266 L 327 292 L 136 292 L 136 256"/></g><g transform="translate(45,2) scale(1,1)"><path fill="none" stroke="#000000" d="M 136 256 L 317 256 L 327 266 L 327 292 L 136 292 L 136 256 L 136 256" stroke-miterlimit="10"/></g><g transform="translate(45,2) scale(1,1)"><path fill="none" stroke="#000000" d="M 317 256 L 317 266 L 327 266 L 317 256" stroke-miterlimit="10"/></g><g transform="translate(45,2) scale(1,1)"><g><path fill="none" stroke="none"/><text fill="#000000" stroke="none" font-family="Arial" font-size="13px" font-style="normal" font-weight="normal" text-decoration="none" x="141" y="274">Just as example, you need to</text><text fill="#000000" stroke="none" font-family="Arial" font-size="13px" font-style="normal" font-weight="normal" text-decoration="none" x="141" y="287">connect  to both Thingies.</text></g></g><g transform="translate(45,2) scale(1,1)"><path fill="none" stroke="#000000" d="M 232 256 L 232 232" stroke-miterlimit="10"/></g><g transform="translate(45,2) scale(1,1)"><path fill="#ffffd8" stroke="none" d="M 152 368 L 301 368 L 311 378 L 311 417 L 152 417 L 152 368"/></g><g transform="translate(45,2) scale(1,1)"><path fill="none" stroke="#000000" d="M 152 368 L 301 368 L 311 378 L 311 417 L 152 417 L 152 368 L 152 368" stroke-miterlimit="10"/></g><g transform="translate(45,2) scale(1,1)"><path fill="none" stroke="#000000" d="M 301 368 L 301 378 L 311 378 L 301 368" stroke-miterlimit="10"/></g><g transform="translate(45,2) scale(1,1)"><g><path fill="none" stroke="none"/><text fill="#000000" stroke="none" font-family="Arial" font-size="13px" font-style="normal" font-weight="normal" text-decoration="none" x="157" y="386">Additionally connect</text><text fill="#000000" stroke="none" font-family="Arial" font-size="13px" font-style="normal" font-weight="normal" text-decoration="none" x="157" y="399">QLowEnergyController</text><text fill="#000000" stroke="none" font-family="Arial" font-size="13px" font-style="normal" font-weight="normal" text-decoration="none" x="157" y="412">signals to Thingys slots.</text></g></g><g transform="translate(45,2) scale(1,1)"><path fill="none" stroke="#000000" d="M 312 392 L 358 392" stroke-miterlimit="10"/></g><g transform="translate(45,2) scale(1,1)"><path fill="#ffffd8" stroke="none" d="M 992 376 L 1165 376 L 1175 386 L 1175 425 L 992 425 L 992 376"/></g><g transform="translate(45,2) scale(1,1)"><path fill="none" stroke="#000000" d="M 992 376 L 1165 376 L 1175 386 L 1175 425 L 992 425 L 992 376 L 992 376" stroke-miterlimit="10"/></g><g transform="translate(45,2) scale(1,1)"><path fill="none" stroke="#000000" d="M 1165 376 L 1165 386 L 1175 386 L 1165 376" stroke-miterlimit="10"/></g><g transform="translate(45,2) scale(1,1)"><g><path fill="none" stroke="none"/><text fill="#000000" stroke="none" font-family="Arial" font-size="13px" font-style="normal" font-weight="normal" text-decoration="none" x="997" y="394">Returns immediately. Once</text><text fill="#000000" stroke="none" font-family="Arial" font-size="13px" font-style="normal" font-weight="normal" text-decoration="none" x="997" y="407">connected, the signal</text><text fill="#000000" stroke="none" font-family="Arial" font-size="13px" font-style="normal" font-weight="normal" text-decoration="none" x="997" y="420">connected() will be emitted.</text></g></g><g transform="translate(45,2) scale(1,1)"><path fill="none" stroke="#000000" d="M 992 400 L 924 426" stroke-miterlimit="10"/></g><g transform="translate(45,2) scale(1,1)"><path fill="#000000" stroke="none" d="M 728 495.5 C 728 491.6340064 731.1340064 488.5 735 488.5 C 738.8659936 488.5 742 491.6340064 742 495.5 C 742 499.3659936 738.8659936 502.5 735 502.5 C 731.1340064 502.5 728 499.3659936 728 495.5 Z"/></g><g transform="translate(45,2) scale(1,1)"><path fill="#000000" stroke="none" d="M 778 495.5 C 778 491.6340064 781.1340064 488.5 785 488.5 C 788.8659936 488.5 792 491.6340064 792 495.5 C 792 499.3659936 788.8659936 502.5 785 502.5 C 781.1340064 502.5 778 499.3659936 778 495.5 Z"/></g><g transform="translate(45,2) scale(1,1)"><path fill="none" stroke="#000000" d="M 784 496 L 736 496" stroke-miterlimit="10" stroke-dasharray="3"/></g><g transform="translate(45,2) scale(1,1)"><path fill="#000000" stroke="none" d="M 304 583.5 C 304 579.6340064 307.1340064 576.5 311 576.5 C 314.8659936 576.5 318 579.6340064 318 583.5 C 318 587.3659936 314.8659936 590.5 311 590.5 C 307.1340064 590.5 304 587.3659936 304 583.5 Z"/></g><g transform="translate(45,2) scale(1,1)"><path fill="#ffffd8" stroke="none" d="M 976 576 L 1197 576 L 1207 586 L 1207 625 L 976 625 L 976 576"/></g><g transform="translate(45,2) scale(1,1)"><path fill="none" stroke="#000000" d="M 976 576 L 1197 576 L 1207 586 L 1207 625 L 976 625 L 976 576 L 976 576" stroke-miterlimit="10"/></g><g transform="translate(45,2) scale(1,1)"><path fill="none" stroke="#000000" d="M 1197 576 L 1197 586 L 1207 586 L 1197 576" stroke-miterlimit="10"/></g><g transform="translate(45,2) scale(1,1)"><g><path fill="none" stroke="none"/><text fill="#000000" stroke="none" font-family="Arial" font-size="13px" font-style="normal" font-weight="normal" text-decoration="none" x="981" y="594">Returns immediately. Once</text><text fill="#000000" stroke="none" font-family="Arial" font-size="13px" font-style="normal" font-weight="normal" text-decoration="none" x="981" y="607">discovered, the signal</text><text fill="#000000" stroke="none" font-family="Arial" font-size="13px" font-style="normal" font-weight="normal" text-decoration="none" x="981" y="620">serviceDiscovered() will be emitted.</text></g></g><g transform="translate(45,2) scale(1,1)"><path fill="none" stroke="#000000" d="M 976 600 L 923 639" stroke-miterlimit="10"/></g><g transform="translate(45,2) scale(1,1)"><path fill="#000000" stroke="none" d="M 728 711.5 C 728 707.6340064 731.1340064 704.5 735 704.5 C 738.8659936 704.5 742 707.6340064 742 711.5 C 742 715.3659936 738.8659936 718.5 735 718.5 C 731.1340064 718.5 728 715.3659936 728 711.5 Z"/></g><g transform="translate(45,2) scale(1,1)"><path fill="#000000" stroke="none" d="M 769 711.5 C 769 707.6340064 772.1340064 704.5 776 704.5 C 779.8659936 704.5 783 707.6340064 783 711.5 C 783 715.3659936 779.8659936 718.5 776 718.5 C 772.1340064 718.5 769 715.3659936 769 711.5 Z"/></g><g transform="translate(45,2) scale(1,1)"><path fill="none" stroke="#000000" d="M 776 712 L 736 712" stroke-miterlimit="10" stroke-dasharray="3"/></g><g transform="translate(45,2) scale(1,1)"><path fill="#ffffd8" stroke="none" d="M 400 696 L 533 696 L 543 706 L 543 771 L 400 771 L 400 696"/></g><g transform="translate(45,2) scale(1,1)"><path fill="none" stroke="#000000" d="M 400 696 L 533 696 L 543 706 L 543 771 L 400 771 L 400 696 L 400 696" stroke-miterlimit="10"/></g><g transform="translate(45,2) scale(1,1)"><path fill="none" stroke="#000000" d="M 533 696 L 533 706 L 543 706 L 533 696" stroke-miterlimit="10"/></g><g transform="translate(45,2) scale(1,1)"><g><path fill="none" stroke="none"/><text fill="#000000" stroke="none" font-family="Arial" font-size="13px" font-style="normal" font-weight="normal" text-decoration="none" x="405" y="714">The Thingy offers</text><text fill="#000000" stroke="none" font-family="Arial" font-size="13px" font-style="normal" font-weight="normal" text-decoration="none" x="405" y="727">multiple services,</text><text fill="#000000" stroke="none" font-family="Arial" font-size="13px" font-style="normal" font-weight="normal" text-decoration="none" x="405" y="740">check here that the</text><text fill="#000000" stroke="none" font-family="Arial" font-size="13px" font-style="normal" font-weight="normal" text-decoration="none" x="405" y="753">UUID matches the UI</text><text fill="#000000" stroke="none" font-family="Arial" font-size="13px" font-style="normal" font-weight="normal" text-decoration="none" x="405" y="766">Service.</text></g></g><g transform="translate(45,2) scale(1,1)"><path fill="none" stroke="#000000" d="M 544 728 L 584 741" stroke-miterlimit="10"/></g><g transform="translate(45,2) scale(1,1)"><path fill="#ffffd8" stroke="none" d="M 392 808 L 525 808 L 535 818 L 535 844 L 392 844 L 392 808"/></g><g transform="translate(45,2) scale(1,1)"><path fill="none" stroke="#000000" d="M 392 808 L 525 808 L 535 818 L 535 844 L 392 844 L 392 808 L 392 808" stroke-miterlimit="10"/></g><g transform="translate(45,2) scale(1,1)"><path fill="none" stroke="#000000" d="M 525 808 L 525 818 L 535 818 L 525 808" stroke-miterlimit="10"/></g><g transform="translate(45,2) scale(1,1)"><g><path fill="none" stroke="none"/><text fill="#000000" stroke="none" font-family="Arial" font-size="13px" font-style="normal" font-weight="normal" text-decoration="none" x="397" y="826">Connect service's</text><text fill="#000000" stroke="none" font-family="Arial" font-size="13px" font-style="normal" font-weight="normal" text-decoration="none" x="397" y="839">signals to your slots.</text></g></g><g transform="translate(45,2) scale(1,1)"><path fill="none" stroke="#000000" d="M 536 824 L 584 815" stroke-miterlimit="10"/></g><g transform="translate(45,2) scale(1,1)"><path fill="#ffffd8" stroke="none" d="M 1176 832 L 1373 832 L 1383 842 L 1383 881 L 1176 881 L 1176 832"/></g><g transform="translate(45,2) scale(1,1)"><path fill="none" stroke="#000000" d="M 1176 832 L 1373 832 L 1383 842 L 1383 881 L 1176 881 L 1176 832 L 1176 832" stroke-miterlimit="10"/></g><g transform="translate(45,2) scale(1,1)"><path fill="none" stroke="#000000" d="M 1373 832 L 1373 842 L 1383 842 L 1373 832" stroke-miterlimit="10"/></g><g transform="translate(45,2) scale(1,1)"><g><path fill="none" stroke="none"/><text fill="#000000" stroke="none" font-family="Arial" font-size="13px" font-style="normal" font-weight="normal" text-decoration="none" x="1181" y="850">Returns immediately. Once the</text><text fill="#000000" stroke="none" font-family="Arial" font-size="13px" font-style="normal" font-weight="normal" text-decoration="none" x="1181" y="863">service details are discovered, it</text><text fill="#000000" stroke="none" font-family="Arial" font-size="13px" font-style="normal" font-weight="normal" text-decoration="none" x="1181" y="876">emits the stateChanged() signal.</text></g></g><g transform="translate(45,2) scale(1,1)"><path fill="none" stroke="#000000" d="M 1176 856 L 1132 848" stroke-miterlimit="10"/></g><g transform="translate(45,2) scale(1,1)"><path fill="#000000" stroke="none" d="M 801 911.5 C 801 907.6340064 804.1340064 904.5 808 904.5 C 811.8659936 904.5 815 907.6340064 815 911.5 C 815 915.3659936 811.8659936 918.5 808 918.5 C 804.1340064 918.5 801 915.3659936 801 911.5 Z"/></g><g transform="translate(45,2) scale(1,1)"><path fill="#000000" stroke="none" d="M 760 910.5 C 760 906.6340064 763.1340064 903.5 767 903.5 C 770.8659936 903.5 774 906.6340064 774 910.5 C 774 914.3659936 770.8659936 917.5 767 917.5 C 763.1340064 917.5 760 914.3659936 760 910.5 Z"/></g><g transform="translate(45,2) scale(1,1)"><path fill="#000000" stroke="none" d="M 310 1119.5 C 310 1115.6340064 313.1340064 1112.5 317 1112.5 C 320.8659936 1112.5 324 1115.6340064 324 1119.5 C 324 1123.3659936 320.8659936 1126.5 317 1126.5 C 313.1340064 1126.5 310 1123.3659936 310 1119.5 Z"/></g><g transform="translate(45,2) scale(1,1)"><path fill="none" stroke="#000000" d="M 768 912 L 808 912" stroke-miterlimit="10" stroke-dasharray="3"/></g><g transform="translate(45,2) scale(1,1)"><path fill="none" stroke="#000000" d="M 95 128 L 359 128" stroke-miterlimit="10"/></g><g transform="translate(45,2) scale(1,1)"><path fill="#000000" stroke="none" d="M 348.83732514237585 132.209517756016 L 359 128 L 348.83732514237585 123.79048224398402"/></g><g transform="translate(45,2) scale(1,1)"><path fill="none" stroke="#000000" d="M 348.83732514237585 132.209517756016 L 359 128 L 348.83732514237585 123.79048224398402 L 348.83732514237585 132.209517756016" stroke-miterlimit="10"/></g><g transform="translate(45,2) scale(1,1)"><g><path fill="none" stroke="none"/><text fill="#000000" stroke="none" font-family="Arial" font-size="13px" font-style="normal" font-weight="normal" text-decoration="none" x="139.006591796875" y="124.5">thingies = discover(addresses)</text></g></g><g transform="translate(45,2) scale(1,1)"><rect fill="#ffffff" stroke="none" x="359" y="128" width="13" height="40"/></g><g transform="translate(45,2) scale(1,1)"><path fill="none" stroke="#000000" d="M 359 128 L 372 128 L 372 168 L 359 168 L 359 128 Z Z" stroke-miterlimit="10"/></g><g transform="translate(45,2) scale(1,1)"><path fill="none" stroke="#000000" d="M 366 168 L 95 168" stroke-miterlimit="10" stroke-dasharray="3"/></g><g transform="translate(45,2) scale(1,1)"><path fill="none" stroke="#000000" d="M 105.16267485762415 163.790482243984 L 95 168 L 105.16267485762415 172.209517756016" stroke-miterlimit="10"/></g><g transform="translate(45,2) scale(1,1)"><g><path fill="none" stroke="none"/><text fill="#000000" stroke="none" font-family="Arial" font-size="13px" font-style="normal" font-weight="normal" text-decoration="none" x="163.311767578125" y="184.5">QList&lt;QBluetoothInfo&gt;</text></g></g><g transform="translate(45,2) scale(1,1)"><path fill="none" stroke="#000000" d="M 95 231 L 359 231" stroke-miterlimit="10"/></g><g transform="translate(45,2) scale(1,1)"><path fill="#000000" stroke="none" d="M 348.83732514237585 235.209517756016 L 359 231 L 348.83732514237585 226.790482243984"/></g><g transform="translate(45,2) scale(1,1)"><path fill="none" stroke="#000000" d="M 348.83732514237585 235.209517756016 L 359 231 L 348.83732514237585 226.790482243984 L 348.83732514237585 235.209517756016" stroke-miterlimit="10"/></g><g transform="translate(45,2) scale(1,1)"><g><path fill="none" stroke="none"/><text fill="#000000" stroke="none" font-family="Arial" font-size="13px" font-style="normal" font-weight="normal" text-decoration="none" x="136.5" y="227.5">thingy = connect(thingies.first())</text></g></g><g transform="translate(45,2) scale(1,1)"><rect fill="#ffffff" stroke="none" x="359" y="231" width="13" height="241"/></g><g transform="translate(45,2) scale(1,1)"><path fill="none" stroke="#000000" d="M 359 231 L 372 231 L 372 472 L 359 472 L 359 231 Z Z" stroke-miterlimit="10"/></g><g transform="translate(45,2) scale(1,1)"><path fill="none" stroke="#000000" d="M 372 248 L 530 248" stroke-miterlimit="10" stroke-dasharray="3"/></g><g transform="translate(45,2) scale(1,1)"><path fill="none" stroke="#000000" d="M 519.8373251423759 252.209517756016 L 530 248 L 519.8373251423758 243.790482243984" stroke-miterlimit="10"/></g><g transform="translate(45,2) scale(1,1)"><g><path fill="none" stroke="none"/><text fill="#000000" stroke="none" font-family="Arial" font-size="13px" font-style="normal" font-weight="normal" text-decoration="none" x="426.5" y="244.5">thingy = </text></g></g><g transform="translate(45,2) scale(1,1)"><g><path fill="none" stroke="none"/><text fill="#000000" stroke="none" font-family="Arial" font-size="13px" font-style="normal" font-weight="normal" text-decoration="none" x="422.5" y="226.5">«create»</text></g></g><g transform="translate(45,2) scale(1,1)"><path fill="none" stroke="#000000" d="M 372 296 L 800 296" stroke-miterlimit="10" stroke-dasharray="3"/></g><g transform="translate(45,2) scale(1,1)"><path fill="none" stroke="#000000" d="M 789.8373251423759 300.209517756016 L 800 296 L 789.8373251423758 291.790482243984" stroke-miterlimit="10"/></g><g transform="translate(45,2) scale(1,1)"><g><path fill="none" stroke="none"/><text fill="#000000" stroke="none" font-family="Arial" font-size="13px" font-style="normal" font-weight="normal" text-decoration="none" x="403.5" y="291.5">thingy-&gt;controller_ = </text></g></g><g transform="translate(45,2) scale(1,1)"><g><path fill="none" stroke="none"/><text fill="#000000" stroke="none" font-family="Arial" font-size="13px" font-style="normal" font-weight="normal" text-decoration="none" x="429.5" y="275.5">«create»</text></g></g><g transform="translate(45,2) scale(1,1)"><path fill="none" stroke="#000000" d="M 372 344 L 912 344" stroke-miterlimit="10"/></g><g transform="translate(45,2) scale(1,1)"><path fill="#000000" stroke="none" d="M 901.8373251423759 348.209517756016 L 912 344 L 901.8373251423758 339.790482243984"/></g><g transform="translate(45,2) scale(1,1)"><path fill="none" stroke="#000000" d="M 901.8373251423759 348.209517756016 L 912 344 L 901.8373251423758 339.790482243984 L 901.8373251423759 348.209517756016" stroke-miterlimit="10"/></g><g transform="translate(45,2) scale(1,1)"><g><path fill="none" stroke="none"/><text fill="#000000" stroke="none" font-family="Arial" font-size="13px" font-style="normal" font-weight="normal" text-decoration="none" x="513.969482421875" y="340.5">setRemoteAddressType(QLowEnergyController::RandomAddress)</text></g></g><g transform="translate(45,2) scale(1,1)"><rect fill="#ffffff" stroke="none" x="912" y="344" width="13" height="32"/></g><g transform="translate(45,2) scale(1,1)"><path fill="none" stroke="#000000" d="M 912 344 L 925 344 L 925 376 L 912 376 L 912 344 Z Z" stroke-miterlimit="10"/></g><g transform="translate(45,2) scale(1,1)"><path fill="none" stroke="#000000" d="M 919 376 L 372 376" stroke-miterlimit="10" stroke-dasharray="3"/></g><g transform="translate(45,2) scale(1,1)"><path fill="none" stroke="#000000" d="M 382.16267485762415 371.790482243984 L 372 376 L 382.16267485762415 380.209517756016" stroke-miterlimit="10"/></g><g transform="translate(45,2) scale(1,1)"><path fill="none" stroke="#000000" d="M 372 410 L 912 410" stroke-miterlimit="10"/></g><g transform="translate(45,2) scale(1,1)"><path fill="none" stroke="#000000" d="M 901.8373251423759 414.209517756016 L 912 410 L 901.8373251423758 405.790482243984" stroke-miterlimit="10"/></g><g transform="translate(45,2) scale(1,1)"><g><path fill="none" stroke="none"/><text fill="#000000" stroke="none" font-family="Arial" font-size="13px" font-style="normal" font-weight="normal" text-decoration="none" x="628.5" y="406.5">connectToDevice()</text></g></g><g transform="translate(45,2) scale(1,1)"><rect fill="#ffffff" stroke="none" x="912" y="410" width="13" height="30"/></g><g transform="translate(45,2) scale(1,1)"><path fill="none" stroke="#000000" d="M 912 410 L 925 410 L 925 440 L 912 440 L 912 410 Z Z" stroke-miterlimit="10"/></g><g transform="translate(45,2) scale(1,1)"><path fill="none" stroke="#000000" d="M 919 440 L 372 440" stroke-miterlimit="10" stroke-dasharray="3"/></g><g transform="translate(45,2) scale(1,1)"><path fill="none" stroke="#000000" d="M 382.16267485762415 435.790482243984 L 372 440 L 382.16267485762415 444.209517756016" stroke-miterlimit="10"/></g><g transform="translate(45,2) scale(1,1)"><path fill="none" stroke="#000000" d="M 366 472 L 95 472" stroke-miterlimit="10" stroke-dasharray="3"/></g><g transform="translate(45,2) scale(1,1)"><path fill="none" stroke="#000000" d="M 105.16267485762415 467.790482243984 L 95 472 L 105.16267485762415 476.209517756016" stroke-miterlimit="10"/></g><g transform="translate(45,2) scale(1,1)"><path fill="none" stroke="#000000" d="M 728 496 L 598 496" stroke-miterlimit="10"/></g><g transform="translate(45,2) scale(1,1)"><path fill="#000000" stroke="none" d="M 608.1626748576241 491.790482243984 L 598 496 L 608.1626748576241 500.209517756016"/></g><g transform="translate(45,2) scale(1,1)"><path fill="none" stroke="#000000" d="M 608.1626748576241 491.790482243984 L 598 496 L 608.1626748576241 500.209517756016 L 608.1626748576241 491.790482243984" stroke-miterlimit="10"/></g><g transform="translate(45,2) scale(1,1)"><g><path fill="none" stroke="none"/><text fill="#000000" stroke="none" font-family="Arial" font-size="13px" font-style="normal" font-weight="normal" text-decoration="none" x="615.5" y="512.5">onConnected_()</text></g></g><g transform="translate(45,2) scale(1,1)"><g><path fill="none" stroke="none"/><text fill="#000000" stroke="none" font-family="Arial" font-size="13px" font-style="normal" font-weight="normal" text-decoration="none" x="644.5" y="527.5">«slot»</text></g></g><g transform="translate(45,2) scale(1,1)"><rect fill="#ffffff" stroke="none" x="585" y="496" width="13" height="168"/></g><g transform="translate(45,2) scale(1,1)"><path fill="none" stroke="#000000" d="M 585 496 L 598 496 L 598 664 L 585 664 L 585 496 Z Z" stroke-miterlimit="10"/></g><g transform="translate(45,2) scale(1,1)"><path fill="none" stroke="#000000" d="M 919 496 L 792 496" stroke-miterlimit="10"/></g><g transform="translate(45,2) scale(1,1)"><path fill="none" stroke="#000000" d="M 802.1626748576241 491.790482243984 L 792 496 L 802.1626748576241 500.209517756016" stroke-miterlimit="10"/></g><g transform="translate(45,2) scale(1,1)"><g><path fill="none" stroke="none"/><text fill="#000000" stroke="none" font-family="Arial" font-size="13px" font-style="normal" font-weight="normal" text-decoration="none" x="819.5" y="512.5">connected()</text></g></g><g transform="translate(45,2) scale(1,1)"><g><path fill="none" stroke="none"/><text fill="#000000" stroke="none" font-family="Arial" font-size="13px" font-style="normal" font-weight="normal" text-decoration="none" x="829.5" y="527.5">«signal»</text></g></g><g transform="translate(45,2) scale(1,1)"><path fill="none" stroke="#000000" d="M 598 552 L 628 552 L 628 572 L 605 572" stroke-miterlimit="10"/></g><g transform="translate(45,2) scale(1,1)"><path fill="#000000" stroke="none" d="M 615.1626748576241 567.790482243984 L 605 572 L 615.1626748576241 576.209517756016"/></g><g transform="translate(45,2) scale(1,1)"><path fill="none" stroke="#000000" d="M 615.1626748576241 567.790482243984 L 605 572 L 615.1626748576241 576.209517756016 L 615.1626748576241 567.790482243984" stroke-miterlimit="10"/></g><g transform="translate(45,2) scale(1,1)"><g><path fill="none" stroke="none"/><text fill="#000000" stroke="none" font-family="Arial" font-size="13px" font-style="normal" font-weight="normal" text-decoration="none" x="638.5" y="564.5">setState_(Discovering)</text></g></g><g transform="translate(45,2) scale(1,1)"><rect fill="#ffffff" stroke="none" x="592" y="572" width="13" height="28"/></g><g transform="translate(45,2) scale(1,1)"><path fill="none" stroke="#000000" d="M 592 572 L 605 572 L 605 600 L 592 600 L 592 572 Z Z" stroke-miterlimit="10"/></g><g transform="translate(45,2) scale(1,1)"><path fill="none" stroke="#000000" d="M 592 584 L 318 584" stroke-miterlimit="10"/></g><g transform="translate(45,2) scale(1,1)"><path fill="#000000" stroke="none" d="M 328.16267485762415 579.790482243984 L 318 584 L 328.16267485762415 588.209517756016"/></g><g transform="translate(45,2) scale(1,1)"><path fill="none" stroke="#000000" d="M 328.16267485762415 579.790482243984 L 318 584 L 328.16267485762415 588.209517756016 L 328.16267485762415 579.790482243984" stroke-miterlimit="10"/></g><g transform="translate(45,2) scale(1,1)"><g><path fill="none" stroke="none"/><text fill="#000000" stroke="none" font-family="Arial" font-size="13px" font-style="normal" font-weight="normal" text-decoration="none" x="374.904052734375" y="600.5">stateChanged(Discovering)</text></g></g><g transform="translate(45,2) scale(1,1)"><path fill="none" stroke="#000000" d="M 598 624 L 912 624" stroke-miterlimit="10"/></g><g transform="translate(45,2) scale(1,1)"><path fill="none" stroke="#000000" d="M 901.8373251423759 628.209517756016 L 912 624 L 901.8373251423758 619.790482243984" stroke-miterlimit="10"/></g><g transform="translate(45,2) scale(1,1)"><g><path fill="none" stroke="none"/><text fill="#000000" stroke="none" font-family="Arial" font-size="13px" font-style="normal" font-weight="normal" text-decoration="none" x="701.5" y="620.5">discoverServices()</text></g></g><g transform="translate(45,2) scale(1,1)"><rect fill="#ffffff" stroke="none" x="912" y="624" width="13" height="32"/></g><g transform="translate(45,2) scale(1,1)"><path fill="none" stroke="#000000" d="M 912 624 L 925 624 L 925 656 L 912 656 L 912 624 Z Z" stroke-miterlimit="10"/></g><g transform="translate(45,2) scale(1,1)"><path fill="none" stroke="#000000" d="M 919 656 L 598 656" stroke-miterlimit="10" stroke-dasharray="3"/></g><g transform="translate(45,2) scale(1,1)"><path fill="none" stroke="#000000" d="M 608.1626748576241 651.790482243984 L 598 656 L 608.1626748576241 660.209517756016" stroke-miterlimit="10"/></g><g transform="translate(45,2) scale(1,1)"><path fill="none" stroke="#000000" d="M 728 712 L 598 712" stroke-miterlimit="10"/></g><g transform="translate(45,2) scale(1,1)"><path fill="#000000" stroke="none" d="M 608.1626748576241 707.790482243984 L 598 712 L 608.1626748576241 716.209517756016"/></g><g transform="translate(45,2) scale(1,1)"><path fill="none" stroke="#000000" d="M 608.1626748576241 707.790482243984 L 598 712 L 608.1626748576241 716.209517756016 L 608.1626748576241 707.790482243984" stroke-miterlimit="10"/></g><g transform="translate(45,2) scale(1,1)"><g><path fill="none" stroke="none"/><text fill="#000000" stroke="none" font-family="Arial" font-size="13px" font-style="normal" font-weight="normal" text-decoration="none" x="614.46533203125" y="739.5">onServiceDiscovered_(uuid)</text></g></g><g transform="translate(45,2) scale(1,1)"><g><path fill="none" stroke="none"/><text fill="#000000" stroke="none" font-family="Arial" font-size="13px" font-style="normal" font-weight="normal" text-decoration="none" x="642.5" y="707.5">«slot»</text></g></g><g transform="translate(45,2) scale(1,1)"><rect fill="#ffffff" stroke="none" x="585" y="712" width="13" height="160"/></g><g transform="translate(45,2) scale(1,1)"><path fill="none" stroke="#000000" d="M 585 712 L 598 712 L 598 872 L 585 872 L 585 712 Z Z" stroke-miterlimit="10"/></g><g transform="translate(45,2) scale(1,1)"><path fill="none" stroke="#000000" d="M 919 712 L 783 712" stroke-miterlimit="10"/></g><g transform="translate(45,2) scale(1,1)"><path fill="#000000" stroke="none" d="M 793.1626748576241 707.790482243984 L 783 712 L 793.1626748576241 716.209517756016"/></g><g transform="translate(45,2) scale(1,1)"><path fill="none" stroke="#000000" d="M 793.1626748576241 707.790482243984 L 783 712 L 793.1626748576241 716.209517756016 L 793.1626748576241 707.790482243984" stroke-miterlimit="10"/></g><g transform="translate(45,2) scale(1,1)"><g><path fill="none" stroke="none"/><text fill="#000000" stroke="none" font-family="Arial" font-size="13px" font-style="normal" font-weight="normal" text-decoration="none" x="766.799560546875" y="699.5">serviceDiscovered(uuid)</text></g></g><g transform="translate(45,2) scale(1,1)"><g><path fill="none" stroke="none"/><text fill="#000000" stroke="none" font-family="Arial" font-size="13px" font-style="normal" font-weight="normal" text-decoration="none" x="824.5" y="732.5">«signal»</text></g></g><g transform="translate(45,2) scale(1,1)"><path fill="none" stroke="#000000" d="M 598 768 L 912 768" stroke-miterlimit="10"/></g><g transform="translate(45,2) scale(1,1)"><path fill="#000000" stroke="none" d="M 901.8373251423759 772.209517756016 L 912 768 L 901.8373251423758 763.790482243984"/></g><g transform="translate(45,2) scale(1,1)"><path fill="none" stroke="#000000" d="M 901.8373251423759 772.209517756016 L 912 768 L 901.8373251423758 763.790482243984 L 901.8373251423759 772.209517756016" stroke-miterlimit="10"/></g><g transform="translate(45,2) scale(1,1)"><g><path fill="none" stroke="none"/><text fill="#000000" stroke="none" font-family="Arial" font-size="13px" font-style="normal" font-weight="normal" text-decoration="none" x="642.5" y="764.5">uiService_ = createServiceObject(uuid)</text></g></g><g transform="translate(45,2) scale(1,1)"><rect fill="#ffffff" stroke="none" x="912" y="768" width="13" height="32"/></g><g transform="translate(45,2) scale(1,1)"><path fill="none" stroke="#000000" d="M 912 768 L 925 768 L 925 800 L 912 800 L 912 768 Z Z" stroke-miterlimit="10"/></g><g transform="translate(45,2) scale(1,1)"><path fill="none" stroke="#000000" d="M 925 776 L 1016 776" stroke-miterlimit="10" stroke-dasharray="3"/></g><g transform="translate(45,2) scale(1,1)"><path fill="none" stroke="#000000" d="M 1005.8373251423759 780.209517756016 L 1016 776 L 1005.8373251423758 771.790482243984" stroke-miterlimit="10"/></g><g transform="translate(45,2) scale(1,1)"><g><path fill="none" stroke="none"/><text fill="#000000" stroke="none" font-family="Arial" font-size="13px" font-style="normal" font-weight="normal" text-decoration="none" x="932.5" y="771.5">«create»</text></g></g><g transform="translate(45,2) scale(1,1)"><path fill="none" stroke="#000000" d="M 919 800 L 598 800" stroke-miterlimit="10" stroke-dasharray="3"/></g><g transform="translate(45,2) scale(1,1)"><path fill="none" stroke="#000000" d="M 608.1626748576241 795.790482243984 L 598 800 L 608.1626748576241 804.209517756016" stroke-miterlimit="10"/></g><g transform="translate(45,2) scale(1,1)"><path fill="none" stroke="#000000" d="M 598 832 L 1119 832" stroke-miterlimit="10"/></g><g transform="translate(45,2) scale(1,1)"><path fill="none" stroke="#000000" d="M 1108.837325142376 836.209517756016 L 1119 832 L 1108.837325142376 827.790482243984" stroke-miterlimit="10"/></g><g transform="translate(45,2) scale(1,1)"><g><path fill="none" stroke="none"/><text fill="#000000" stroke="none" font-family="Arial" font-size="13px" font-style="normal" font-weight="normal" text-decoration="none" x="760.5" y="827.5">discoverDetails()</text></g></g><g transform="translate(45,2) scale(1,1)"><rect fill="#ffffff" stroke="none" x="1119" y="832" width="13" height="32"/></g><g transform="translate(45,2) scale(1,1)"><path fill="none" stroke="#000000" d="M 1119 832 L 1132 832 L 1132 864 L 1119 864 L 1119 832 Z Z" stroke-miterlimit="10"/></g><g transform="translate(45,2) scale(1,1)"><path fill="none" stroke="#000000" d="M 1126 864 L 598 864" stroke-miterlimit="10" stroke-dasharray="3"/></g><g transform="translate(45,2) scale(1,1)"><path fill="none" stroke="#000000" d="M 608.1626748576241 859.790482243984 L 598 864 L 608.1626748576241 868.209517756016" stroke-miterlimit="10"/></g><g transform="translate(45,2) scale(1,1)"><path fill="none" stroke="#000000" d="M 760 911 L 598 911" stroke-miterlimit="10"/></g><g transform="translate(45,2) scale(1,1)"><path fill="#000000" stroke="none" d="M 608.1626748576241 906.790482243984 L 598 911 L 608.1626748576241 915.209517756016"/></g><g transform="translate(45,2) scale(1,1)"><path fill="none" stroke="#000000" d="M 608.1626748576241 906.790482243984 L 598 911 L 608.1626748576241 915.209517756016 L 608.1626748576241 906.790482243984" stroke-miterlimit="10"/></g><g transform="translate(45,2) scale(1,1)"><g><path fill="none" stroke="none"/><text fill="#000000" stroke="none" font-family="Arial" font-size="12px" font-style="normal" font-weight="normal" text-decoration="none" x="615.744140625" y="897.5">onServiceStateChanged_(ServiceDiscovered)</text></g></g><g transform="translate(45,2) scale(1,1)"><g><path fill="none" stroke="none"/><text fill="#000000" stroke="none" font-family="Arial" font-size="13px" font-style="normal" font-weight="normal" text-decoration="none" x="658.5" y="932.5">«slot»</text></g></g><g transform="translate(45,2) scale(1,1)"><rect fill="#ffffff" stroke="none" x="585" y="911" width="13" height="233"/></g><g transform="translate(45,2) scale(1,1)"><path fill="none" stroke="#000000" d="M 585 911 L 598 911 L 598 1144 L 585 1144 L 585 911 Z Z" stroke-miterlimit="10"/></g><g transform="translate(45,2) scale(1,1)"><path fill="none" stroke="#000000" d="M 1126 912 L 815 912" stroke-miterlimit="10"/></g><g transform="translate(45,2) scale(1,1)"><path fill="#000000" stroke="none" d="M 825.1626748576241 907.790482243984 L 815 912 L 825.1626748576241 916.209517756016"/></g><g transform="translate(45,2) scale(1,1)"><path fill="none" stroke="#000000" d="M 825.1626748576241 907.790482243984 L 815 912 L 825.1626748576241 916.209517756016 L 825.1626748576241 907.790482243984" stroke-miterlimit="10"/></g><g transform="translate(45,2) scale(1,1)"><g><path fill="none" stroke="none"/><text fill="#000000" stroke="none" font-family="Arial" font-size="13px" font-style="normal" font-weight="normal" text-decoration="none" x="870.36083984375" y="928.5">stateChanged(ServiceDiscovered)</text></g></g><g transform="translate(45,2) scale(1,1)"><g><path fill="none" stroke="none"/><text fill="#000000" stroke="none" font-family="Arial" font-size="13px" font-style="normal" font-weight="normal" text-decoration="none" x="943.5" y="906.5">«signal»</text></g></g><g transform="translate(45,2) scale(1,1)"><path fill="none" stroke="#000000" d="M 598 960 L 1119 960" stroke-miterlimit="10"/></g><g transform="translate(45,2) scale(1,1)"><path fill="#000000" stroke="none" d="M 1108.837325142376 964.209517756016 L 1119 960 L 1108.837325142376 955.790482243984"/></g><g transform="translate(45,2) scale(1,1)"><path fill="none" stroke="#000000" d="M 1108.837325142376 964.209517756016 L 1119 960 L 1108.837325142376 955.790482243984 L 1108.837325142376 964.209517756016" stroke-miterlimit="10"/></g><g transform="translate(45,2) scale(1,1)"><g><path fill="none" stroke="none"/><text fill="#000000" stroke="none" font-family="Arial" font-size="13px" font-style="normal" font-weight="normal" text-decoration="none" x="646.233154296875" y="955.5">button = characteristic(UiButtonCharacteristicUuid_)</text></g></g><g transform="translate(45,2) scale(1,1)"><rect fill="#ffffff" stroke="none" x="1119" y="960" width="13" height="32"/></g><g transform="translate(45,2) scale(1,1)"><path fill="none" stroke="#000000" d="M 1119 960 L 1132 960 L 1132 992 L 1119 992 L 1119 960 Z Z" stroke-miterlimit="10"/></g><g transform="translate(45,2) scale(1,1)"><path fill="none" stroke="#000000" d="M 1126 992 L 598 992" stroke-miterlimit="10" stroke-dasharray="3"/></g><g transform="translate(45,2) scale(1,1)"><path fill="none" stroke="#000000" d="M 608.1626748576241 987.790482243984 L 598 992 L 608.1626748576241 996.209517756016" stroke-miterlimit="10"/></g><g transform="translate(45,2) scale(1,1)"><path fill="none" stroke="#000000" d="M 598 1016 L 628 1016 L 628 1036 L 605 1036" stroke-miterlimit="10"/></g><g transform="translate(45,2) scale(1,1)"><path fill="#000000" stroke="none" d="M 615.1626748576241 1031.7904822439841 L 605 1036 L 615.1626748576241 1040.2095177560159"/></g><g transform="translate(45,2) scale(1,1)"><path fill="none" stroke="#000000" d="M 615.1626748576241 1031.7904822439841 L 605 1036 L 615.1626748576241 1040.2095177560159 L 615.1626748576241 1031.7904822439841" stroke-miterlimit="10"/></g><g transform="translate(45,2) scale(1,1)"><g><path fill="none" stroke="none"/><text fill="#000000" stroke="none" font-family="Arial" font-size="13px" font-style="normal" font-weight="normal" text-decoration="none" x="613.5625" y="1060.5">setNotify_(uiService, buttonCharacteristic, true)</text></g></g><g transform="translate(45,2) scale(1,1)"><rect fill="#ffffff" stroke="none" x="592" y="1036" width="13" height="28"/></g><g transform="translate(45,2) scale(1,1)"><path fill="none" stroke="#000000" d="M 592 1036 L 605 1036 L 605 1064 L 592 1064 L 592 1036 Z Z" stroke-miterlimit="10"/></g><g transform="translate(45,2) scale(1,1)"><path fill="none" stroke="#000000" d="M 598 1088 L 628 1088 L 628 1108 L 605 1108" stroke-miterlimit="10"/></g><g transform="translate(45,2) scale(1,1)"><path fill="#000000" stroke="none" d="M 615.1626748576241 1103.7904822439841 L 605 1108 L 615.1626748576241 1112.2095177560159"/></g><g transform="translate(45,2) scale(1,1)"><path fill="none" stroke="#000000" d="M 615.1626748576241 1103.7904822439841 L 605 1108 L 615.1626748576241 1112.2095177560159 L 615.1626748576241 1103.7904822439841" stroke-miterlimit="10"/></g><g transform="translate(45,2) scale(1,1)"><g><path fill="none" stroke="none"/><text fill="#000000" stroke="none" font-family="Arial" font-size="13px" font-style="normal" font-weight="normal" text-decoration="none" x="628.591796875" y="1132.5">setState_(Ready)</text></g></g><g transform="translate(45,2) scale(1,1)"><rect fill="#ffffff" stroke="none" x="592" y="1108" width="13" height="28"/></g><g transform="translate(45,2) scale(1,1)"><path fill="none" stroke="#000000" d="M 592 1108 L 605 1108 L 605 1136 L 592 1136 L 592 1108 Z Z" stroke-miterlimit="10"/></g><g transform="translate(45,2) scale(1,1)"><path fill="none" stroke="#000000" d="M 592 1120 L 324 1120" stroke-miterlimit="10"/></g><g transform="translate(45,2) scale(1,1)"><path fill="#000000" stroke="none" d="M 334.16267485762415 1115.7904822439841 L 324 1120 L 334.16267485762415 1124.2095177560159"/></g><g transform="translate(45,2) scale(1,1)"><path fill="none" stroke="#000000" d="M 334.16267485762415 1115.7904822439841 L 324 1120 L 334.16267485762415 1124.2095177560159 L 334.16267485762415 1115.7904822439841" stroke-miterlimit="10"/></g><g transform="translate(45,2) scale(1,1)"><g><path fill="none" stroke="none"/><text fill="#000000" stroke="none" font-family="Arial" font-size="13px" font-style="normal" font-weight="normal" text-decoration="none" x="393.5" y="1136.5">stateChanged(Ready)</text></g></g></g></svg>