<svg version="1.1" xmlns="http://www.w3.org/2000/svg" xmlns:xlink="http://www.w3.org/1999/xlink" width="1044" height="646"><defs/><g><g transform="translate(-214,-166) scale(1,1)"><rect fill="#a3e0ff" stroke="none" x="224" y="432" width="664.712890625" height="370"/></g><g transform="translate(-214,-166) scale(1,1)"><path fill="none" stroke="#000000" d="M 224 432 L 888.712890625 432 L 888.712890625 802 L 224 802 L 224 432 Z Z" stroke-miterlimit="10"/></g><g transform="translate(-214,-166) scale(1,1)"><path fill="none" stroke="#000000" d="M 224 457 L 888.712890625 457" stroke-miterlimit="10"/></g><g transform="translate(-214,-166) scale(1,1)"><path fill="none" stroke="#000000" d="M 224 525 L 888.712890625 525" stroke-miterlimit="10"/></g><g transform="translate(-214,-166) scale(1,1)"><g><path fill="none" stroke="none"/><text fill="#000000" stroke="none" font-family="Arial" font-size="13px" font-style="normal" font-weight="bold" text-decoration="none" x="536.846923828125" y="451.5">Thingy</text></g></g><g transform="translate(-214,-166) scale(1,1)"><g><path fill="none" stroke="none"/><text fill="#000000" stroke="none" font-family="Arial" font-size="13px" font-style="normal" font-weight="normal" text-decoration="none" x="229" y="474.5">-ThingyServiceUuid_: QBluetoothUuid {readOnly}</text><path fill="none" stroke="#000000" d="M 229 474.5 L 513.71142578125 474.5" stroke-miterlimit="10"/></g></g><g transform="translate(-214,-166) scale(1,1)"><g><path fill="none" stroke="none"/><text fill="#000000" stroke="none" font-family="Arial" font-size="13px" font-style="normal" font-weight="normal" text-decoration="none" x="229" y="489.5">-UiServiceUuid_: QBluetoothUuid {readOnly}</text><path fill="none" stroke="#000000" d="M 229 489.5 L 486.96875 489.5" stroke-miterlimit="10"/></g></g><g transform="translate(-214,-166) scale(1,1)"><g><path fill="none" stroke="none"/><text fill="#000000" stroke="none" font-family="Arial" font-size="13px" font-style="normal" font-weight="normal" text-decoration="none" x="229" y="504.5">-UiLedCharacteristicUuid_: QBluetoothUuid {readOnly}</text></g></g><g transform="translate(-214,-166) scale(1,1)"><g><path fill="none" stroke="none"/><text fill="#000000" stroke="none" font-family="Arial" font-size="13px" font-style="normal" font-weight="normal" text-decoration="none" x="229" y="519.5">-UiButtonCharacteristicUuid_: QBluetoothUuid {readOnly}</text><path fill="none" stroke="#000000" d="M 229 519.5 L 560.67138671875 519.5" stroke-miterlimit="10"/></g></g><g transform="translate(-214,-166) scale(1,1)"><g><path fill="none" stroke="none"/><text fill="#000000" stroke="none" font-family="Arial" font-size="13px" font-style="normal" font-weight="normal" text-decoration="none" x="229" y="542.5">+discover(addresses: const QList&lt;QBluetoothAddress&gt;&amp; = QList&lt;QBluetoothAddress&gt;())</text><path fill="none" stroke="#000000" d="M 229 542.5 L 744.20751953125 542.5" stroke-miterlimit="10"/></g></g><g transform="translate(-214,-166) scale(1,1)"><g><path fill="none" stroke="none"/><text fill="#000000" stroke="none" font-family="Arial" font-size="13px" font-style="normal" font-weight="normal" text-decoration="none" x="229" y="557.5">+discoverInfinitely(deviceDiscoveredCallback: std::function&lt;void(const QBluetoothDeviceInfo&amp; info)&gt;)</text><path fill="none" stroke="#000000" d="M 229 557.5 L 813.20654296875 557.5" stroke-miterlimit="10"/></g></g><g transform="translate(-214,-166) scale(1,1)"><g><path fill="none" stroke="none"/><text fill="#000000" stroke="none" font-family="Arial" font-size="13px" font-style="normal" font-weight="normal" text-decoration="none" x="229" y="572.5">+connect(info: const QBluetoothDeviceInfo&amp;, parent: QObject* = nullptr)</text></g></g><g transform="translate(-214,-166) scale(1,1)"><g><path fill="none" stroke="none"/><text fill="#000000" stroke="none" font-family="Arial" font-size="13px" font-style="normal" font-weight="normal" text-decoration="none" x="229" y="587.5">+disconnect()</text></g></g><g transform="translate(-214,-166) scale(1,1)"><g><path fill="none" stroke="none"/><text fill="#000000" stroke="none" font-family="Arial" font-size="13px" font-style="normal" font-weight="normal" text-decoration="none" x="229" y="602.5">+state(): State</text></g></g><g transform="translate(-214,-166) scale(1,1)"><g><path fill="none" stroke="none"/><text fill="#000000" stroke="none" font-family="Arial" font-size="13px" font-style="normal" font-weight="normal" text-decoration="none" x="229" y="617.5">+address(): QBluetoothAddress</text></g></g><g transform="translate(-214,-166) scale(1,1)"><g><path fill="none" stroke="none"/><text fill="#000000" stroke="none" font-family="Arial" font-size="13px" font-style="normal" font-weight="normal" text-decoration="none" x="229" y="632.5">+setLedOff()</text></g></g><g transform="translate(-214,-166) scale(1,1)"><g><path fill="none" stroke="none"/><text fill="#000000" stroke="none" font-family="Arial" font-size="13px" font-style="normal" font-weight="normal" text-decoration="none" x="229" y="647.5">+setLedColor(red: quint, green: quint, blue: quint)</text></g></g><g transform="translate(-214,-166) scale(1,1)"><g><path fill="none" stroke="none"/><text fill="#000000" stroke="none" font-family="Arial" font-size="13px" font-style="normal" font-weight="normal" text-decoration="none" x="229" y="662.5">«signal»+stateChanged(state: State)</text></g></g><g transform="translate(-214,-166) scale(1,1)"><g><path fill="none" stroke="none"/><text fill="#000000" stroke="none" font-family="Arial" font-size="13px" font-style="normal" font-weight="normal" text-decoration="none" x="229" y="677.5">«signal»+buttonStateChanged(value: bool)</text></g></g><g transform="translate(-214,-166) scale(1,1)"><g><path fill="none" stroke="none"/><text fill="#000000" stroke="none" font-family="Arial" font-size="13px" font-style="normal" font-weight="normal" text-decoration="none" x="229" y="692.5">«slot»-onConnected_()</text></g></g><g transform="translate(-214,-166) scale(1,1)"><g><path fill="none" stroke="none"/><text fill="#000000" stroke="none" font-family="Arial" font-size="13px" font-style="normal" font-weight="normal" text-decoration="none" x="229" y="707.5">«slot»-onServiceDiscovered_(newService: const QBluetoothAddress&amp;)</text></g></g><g transform="translate(-214,-166) scale(1,1)"><g><path fill="none" stroke="none"/><text fill="#000000" stroke="none" font-family="Arial" font-size="13px" font-style="normal" font-weight="normal" text-decoration="none" x="229" y="722.5">«slot»-onServiceStateChanged_(newState: QLowEnergyService::ServiceState )</text></g></g><g transform="translate(-214,-166) scale(1,1)"><g><path fill="none" stroke="none"/><text fill="#000000" stroke="none" font-family="Arial" font-size="13px" font-style="normal" font-weight="normal" text-decoration="none" x="229" y="737.5">«slot»-onCharacteristicChanged_(characteristic: const QLowEnergyCharacteristic&amp;, value: const QByteArray&amp;)</text></g></g><g transform="translate(-214,-166) scale(1,1)"><g><path fill="none" stroke="none"/><text fill="#000000" stroke="none" font-family="Arial" font-size="13px" font-style="normal" font-weight="normal" text-decoration="none" x="229" y="752.5">«slot»-onDisconnected_()</text></g></g><g transform="translate(-214,-166) scale(1,1)"><g><path fill="none" stroke="none"/><text fill="#000000" stroke="none" font-family="Arial" font-size="13px" font-style="normal" font-weight="normal" text-decoration="none" x="229" y="767.5">-Thingy(parent: QObject*)</text></g></g><g transform="translate(-214,-166) scale(1,1)"><g><path fill="none" stroke="none"/><text fill="#000000" stroke="none" font-family="Arial" font-size="13px" font-style="normal" font-weight="normal" text-decoration="none" x="229" y="782.5">-setNotify_(service: QLowEnergyService&amp;, characteristic: const QLowEnergyCharacteristic&amp;, enabled: bool): bool</text><path fill="none" stroke="#000000" d="M 229 782.5 L 881.4501953125 782.5" stroke-miterlimit="10"/></g></g><g transform="translate(-214,-166) scale(1,1)"><g><path fill="none" stroke="none"/><text fill="#000000" stroke="none" font-family="Arial" font-size="13px" font-style="normal" font-weight="normal" text-decoration="none" x="229" y="797.5">-setState_(state: State)</text></g></g><g transform="translate(-214,-166) scale(1,1)"><rect fill="#a3ffa3" stroke="none" x="512" y="208" width="112" height="48"/></g><g transform="translate(-214,-166) scale(1,1)"><path fill="none" stroke="#000000" d="M 512 208 L 624 208 L 624 256 L 512 256 L 512 208 Z Z" stroke-miterlimit="10"/></g><g transform="translate(-214,-166) scale(1,1)"><g><path fill="none" stroke="none"/><text fill="#000000" stroke="none" font-family="Arial" font-size="13px" font-style="normal" font-weight="bold" text-decoration="none" x="544.158203125" y="227.5">QObject</text></g></g><g transform="translate(-214,-166) scale(1,1)"><rect fill="#a3e0ff" stroke="none" x="1000" y="384" width="125.34619140625" height="105"/></g><g transform="translate(-214,-166) scale(1,1)"><path fill="none" stroke="#000000" d="M 1000 384 L 1125.34619140625 384 L 1125.34619140625 489 L 1000 489 L 1000 384 Z Z" stroke-miterlimit="10"/></g><g transform="translate(-214,-166) scale(1,1)"><path fill="none" stroke="#000000" d="M 1000 422 L 1125.34619140625 422" stroke-miterlimit="10"/></g><g transform="translate(-214,-166) scale(1,1)"><g><path fill="none" stroke="none"/><text fill="#000000" stroke="none" font-family="Arial" font-size="13px" font-style="normal" font-weight="normal" text-decoration="none" x="1019.30908203125" y="401.5">«enumeration»</text></g></g><g transform="translate(-214,-166) scale(1,1)"><g><path fill="none" stroke="none"/><text fill="#000000" stroke="none" font-family="Arial" font-size="13px" font-style="normal" font-weight="bold" text-decoration="none" x="1047.495849609375" y="416.5">State</text></g></g><g transform="translate(-214,-166) scale(1,1)"><g><path fill="none" stroke="none"/><text fill="#000000" stroke="none" font-family="Arial" font-size="13px" font-style="normal" font-weight="normal" text-decoration="none" x="1005" y="439.5">Connecting</text></g></g><g transform="translate(-214,-166) scale(1,1)"><g><path fill="none" stroke="none"/><text fill="#000000" stroke="none" font-family="Arial" font-size="13px" font-style="normal" font-weight="normal" text-decoration="none" x="1005" y="454.5">Discovering</text></g></g><g transform="translate(-214,-166) scale(1,1)"><g><path fill="none" stroke="none"/><text fill="#000000" stroke="none" font-family="Arial" font-size="13px" font-style="normal" font-weight="normal" text-decoration="none" x="1005" y="469.5">Ready</text></g></g><g transform="translate(-214,-166) scale(1,1)"><g><path fill="none" stroke="none"/><text fill="#000000" stroke="none" font-family="Arial" font-size="13px" font-style="normal" font-weight="normal" text-decoration="none" x="1005" y="484.5">Disconnected</text></g></g><g transform="translate(-214,-166) scale(1,1)"><path fill="none" stroke="#000000" d="M 568 432 L 568 256" stroke-miterlimit="10"/></g><g transform="translate(-214,-166) scale(1,1)"><path fill="#FFFFFF" stroke="none" d="M 576.419035512032 276.3253497152483 L 568 256 L 559.580964487968 276.3253497152483"/></g><g transform="translate(-214,-166) scale(1,1)"><path fill="none" stroke="#000000" d="M 576.419035512032 276.3253497152483 L 568 256 L 559.580964487968 276.3253497152483 L 576.419035512032 276.3253497152483" stroke-miterlimit="10"/></g><g transform="translate(-214,-166) scale(1,1)"><path fill="none" stroke="#000000" d="M 999 459 L 890 498" stroke-miterlimit="10"/></g><g transform="translate(-214,-166) scale(1,1)"><path fill="#000000" stroke="none" d="M 898.1505118623218 490.6129060935878 L 890 498 L 900.986746402475 498.53981801350324 L 910.7140190807972 490.58856198026524"/></g><g transform="translate(-214,-166) scale(1,1)"><path fill="none" stroke="#000000" d="M 898.1505118623218 490.6129060935878 L 890 498 L 900.986746402475 498.53981801350324 L 910.7140190807972 490.58856198026524 L 898.1505118623218 490.6129060935878" stroke-miterlimit="10"/></g><g transform="translate(-214,-166) scale(1,1)"><g><path fill="none" stroke="none"/><text fill="#000000" stroke="none" font-family="Arial" font-size="13px" font-style="normal" font-weight="normal" text-decoration="none" x="899.13134765625" y="509.5">-state_</text></g></g><g transform="translate(-214,-166) scale(1,1)"><rect fill="#a3ffa3" stroke="none" x="1096" y="688" width="152" height="44"/></g><g transform="translate(-214,-166) scale(1,1)"><path fill="none" stroke="#000000" d="M 1096 688 L 1248 688 L 1248 732 L 1096 732 L 1096 688 Z Z" stroke-miterlimit="10"/></g><g transform="translate(-214,-166) scale(1,1)"><g><path fill="none" stroke="none"/><text fill="#000000" stroke="none" font-family="Arial" font-size="13px" font-style="normal" font-weight="bold" text-decoration="none" x="1112.7509765625" y="707.5">QLowEnergyService</text></g></g><g transform="translate(-214,-166) scale(1,1)"><rect fill="#a3ffa3" stroke="none" x="1064" y="592" width="168" height="44"/></g><g transform="translate(-214,-166) scale(1,1)"><path fill="none" stroke="#000000" d="M 1064 592 L 1232 592 L 1232 636 L 1064 636 L 1064 592 Z Z" stroke-miterlimit="10"/></g><g transform="translate(-214,-166) scale(1,1)"><g><path fill="none" stroke="none"/><text fill="#000000" stroke="none" font-family="Arial" font-size="13px" font-style="normal" font-weight="bold" text-decoration="none" x="1082.247802734375" y="611.5">QLowEnergyController</text></g></g><g transform="translate(-214,-166) scale(1,1)"><path fill="none" stroke="#000000" d="M 1063 614 L 890 615" stroke-miterlimit="10"/></g><g transform="translate(-214,-166) scale(1,1)"><path fill="#FFFFFF" stroke="none" d="M 900.1381730160672 610.7318097633439 L 890 615 L 900.1868371482374 619.1507046287699 L 911.9996324727069 614.8728344943775"/></g><g transform="translate(-214,-166) scale(1,1)"><path fill="none" stroke="#000000" d="M 900.1381730160672 610.7318097633439 L 890 615 L 900.1868371482374 619.1507046287699 L 911.9996324727069 614.8728344943775 L 900.1381730160672 610.7318097633439" stroke-miterlimit="10"/></g><g transform="translate(-214,-166) scale(1,1)"><g><path fill="none" stroke="none"/><text fill="#000000" stroke="none" font-family="Arial" font-size="13px" font-style="normal" font-weight="normal" text-decoration="none" x="943.13134765625" y="634.5">-controller_</text></g></g><g transform="translate(-214,-166) scale(1,1)"><path fill="none" stroke="#000000" d="M 1095 698 L 890 667" stroke-miterlimit="10"/></g><g transform="translate(-214,-166) scale(1,1)"><path fill="#FFFFFF" stroke="none" d="M 900.6778392669192 664.3573217014103 L 890 667 L 899.4190282994858 672.6817168086313 L 911.7526927041861 670.2894315796574"/></g><g transform="translate(-214,-166) scale(1,1)"><path fill="none" stroke="#000000" d="M 900.6778392669192 664.3573217014103 L 890 667 L 899.4190282994858 672.6817168086313 L 911.7526927041861 670.2894315796574 L 900.6778392669192 664.3573217014103" stroke-miterlimit="10"/></g><g transform="translate(-214,-166) scale(1,1)"><g><path fill="none" stroke="none"/><text fill="#000000" stroke="none" font-family="Arial" font-size="13px" font-style="normal" font-weight="normal" text-decoration="none" x="939.13134765625" y="701.5">-uiService_</text></g></g><g transform="translate(-214,-166) scale(1,1)"><path fill="#ffffd8" stroke="none" d="M 728 176 L 1045 176 L 1055 186 L 1055 225 L 728 225 L 728 176"/></g><g transform="translate(-214,-166) scale(1,1)"><path fill="none" stroke="#000000" d="M 728 176 L 1045 176 L 1055 186 L 1055 225 L 728 225 L 728 176 L 728 176" stroke-miterlimit="10"/></g><g transform="translate(-214,-166) scale(1,1)"><path fill="none" stroke="#000000" d="M 1045 176 L 1045 186 L 1055 186 L 1045 176" stroke-miterlimit="10"/></g><g transform="translate(-214,-166) scale(1,1)"><g><path fill="none" stroke="none"/><text fill="#000000" stroke="none" font-family="Arial" font-size="13px" font-style="normal" font-weight="normal" text-decoration="none" x="733" y="194">Your Thingy class has to derive from QObject in order</text><text fill="#000000" stroke="none" font-family="Arial" font-size="13px" font-style="normal" font-weight="normal" text-decoration="none" x="733" y="207">to  use signal/slots. Do not forget the Q_OBJECT</text><text fill="#000000" stroke="none" font-family="Arial" font-size="13px" font-style="normal" font-weight="normal" text-decoration="none" x="733" y="220">macro at the beginning of the class declaration.</text></g></g><g transform="translate(-214,-166) scale(1,1)"><path fill="none" stroke="#000000" d="M 728 200 L 624 232" stroke-miterlimit="10"/></g></g></svg>